<mxfile host="app.diagrams.net" modified="2021-11-12T10:54:48.925Z" agent="5.0 (Macintosh; Intel Mac OS X 10_14_6) AppleWebKit/537.36 (KHTML, like Gecko) Chrome/95.0.4638.69 Safari/537.36" etag="-8dJnnlTZJu4Ii0b6mO6" version="15.7.3" type="github">
  <diagram id="qYtG-a8lDuCber2_HTPU" name="第 1 页">
    <mxGraphModel dx="526" dy="529" grid="1" gridSize="10" guides="1" tooltips="1" connect="1" arrows="1" fold="1" page="1" pageScale="1" pageWidth="827" pageHeight="1169" math="0" shadow="0">
      <root>
        <mxCell id="0" />
        <mxCell id="1" parent="0" />
        <mxCell id="WlOXoA2Bl1x3F0ouNl5P-20" value="" style="rounded=0;whiteSpace=wrap;fillColor=none;fontSize=8;" vertex="1" parent="1">
          <mxGeometry x="261.07" y="370" width="362.43" height="275.5" as="geometry" />
        </mxCell>
        <mxCell id="TgehsIDATV7xhi2gPNsP-9" value="" style="rounded=0;whiteSpace=wrap;html=1;fillColor=#f5f5f5;fontColor=#333333;strokeColor=#666666;" parent="1" vertex="1">
          <mxGeometry x="230" y="130" width="210" height="170" as="geometry" />
        </mxCell>
        <mxCell id="TgehsIDATV7xhi2gPNsP-1" value="web-cli&amp;nbsp; &amp;nbsp; &amp;nbsp; &amp;nbsp; &amp;nbsp;webpack5&amp;nbsp; &amp;nbsp; &amp;nbsp;Module-Federation&amp;nbsp;" style="rounded=0;whiteSpace=wrap;html=1;fillColor=#d5e8d4;strokeColor=#82b366;" parent="1" vertex="1">
          <mxGeometry x="230" y="310" width="440" height="30" as="geometry" />
        </mxCell>
        <mxCell id="TgehsIDATV7xhi2gPNsP-2" value="业务模块Module1" style="rounded=0;whiteSpace=wrap;html=1;fillColor=#ffe6cc;strokeColor=#d79b00;" parent="1" vertex="1">
          <mxGeometry x="237" y="165" width="80" height="40" as="geometry" />
        </mxCell>
        <mxCell id="TgehsIDATV7xhi2gPNsP-3" value="业务模块Module2&lt;span style=&quot;color: rgba(0 , 0 , 0 , 0) ; font-family: monospace ; font-size: 0px&quot;&gt;%3CmxGraphModel%3E%3Croot%3E%3CmxCell%20id%3D%220%22%2F%3E%3CmxCell%20id%3D%221%22%20parent%3D%220%22%2F%3E%3CmxCell%20id%3D%222%22%20value%3D%22%E4%B8%9A%E5%8A%A1%E7%BB%84%E4%BB%B6%22%20style%3D%22rounded%3D0%3BwhiteSpace%3Dwrap%3Bhtml%3D1%3B%22%20vertex%3D%221%22%20parent%3D%221%22%3E%3CmxGeometry%20x%3D%22180%22%20y%3D%22300%22%20width%3D%22120%22%20height%3D%2260%22%20as%3D%22geometry%22%2F%3E%3C%2FmxCell%3E%3C%2Froot%3E%3C%2FmxGraphModel%3E&lt;/span&gt;" style="rounded=0;whiteSpace=wrap;html=1;fillColor=#ffe6cc;strokeColor=#d79b00;" parent="1" vertex="1">
          <mxGeometry x="237" y="225" width="80" height="40" as="geometry" />
        </mxCell>
        <mxCell id="TgehsIDATV7xhi2gPNsP-4" value="业务组件&lt;br&gt;Components" style="rounded=0;whiteSpace=wrap;html=1;fillColor=#ffe6cc;strokeColor=#d79b00;" parent="1" vertex="1">
          <mxGeometry x="339" y="200" width="90" height="40" as="geometry" />
        </mxCell>
        <mxCell id="TgehsIDATV7xhi2gPNsP-5" value="工具函数&lt;br&gt;utils" style="rounded=0;whiteSpace=wrap;html=1;fillColor=#ffe6cc;strokeColor=#d79b00;" parent="1" vertex="1">
          <mxGeometry x="339" y="250" width="90" height="40" as="geometry" />
        </mxCell>
        <mxCell id="TgehsIDATV7xhi2gPNsP-6" value="外部依赖：&lt;br&gt;React&lt;br&gt;Mobx&lt;br&gt;Find-react&lt;br&gt;Mobx-react&lt;br&gt;..." style="rounded=0;whiteSpace=wrap;html=1;fillColor=#ffe6cc;strokeColor=#d79b00;" parent="1" vertex="1">
          <mxGeometry x="317" y="10" width="90" height="90" as="geometry" />
        </mxCell>
        <mxCell id="TgehsIDATV7xhi2gPNsP-7" value="基础布局&lt;br&gt;BasicLayout" style="rounded=0;whiteSpace=wrap;html=1;fillColor=#ffe6cc;strokeColor=#d79b00;" parent="1" vertex="1">
          <mxGeometry x="339" y="150" width="90" height="40" as="geometry" />
        </mxCell>
        <mxCell id="TgehsIDATV7xhi2gPNsP-10" value="基础配置：" style="text;html=1;align=center;verticalAlign=middle;resizable=0;points=[];autosize=1;strokeColor=none;fillColor=none;" parent="1" vertex="1">
          <mxGeometry x="140" y="315" width="80" height="20" as="geometry" />
        </mxCell>
        <mxCell id="TgehsIDATV7xhi2gPNsP-11" value="业务项目" style="text;html=1;align=center;verticalAlign=middle;resizable=0;points=[];autosize=1;strokeColor=none;fillColor=none;" parent="1" vertex="1">
          <mxGeometry x="140" y="190" width="60" height="20" as="geometry" />
        </mxCell>
        <mxCell id="TgehsIDATV7xhi2gPNsP-18" value="" style="rounded=0;whiteSpace=wrap;html=1;fillColor=#f5f5f5;fontColor=#333333;strokeColor=#666666;" parent="1" vertex="1">
          <mxGeometry x="460" y="130" width="210" height="170" as="geometry" />
        </mxCell>
        <mxCell id="TgehsIDATV7xhi2gPNsP-19" value="业务模块Module1" style="rounded=0;whiteSpace=wrap;html=1;fillColor=#ffe6cc;strokeColor=#d79b00;" parent="1" vertex="1">
          <mxGeometry x="467" y="165" width="80" height="40" as="geometry" />
        </mxCell>
        <mxCell id="TgehsIDATV7xhi2gPNsP-20" value="业务模块Module2&lt;span style=&quot;color: rgba(0 , 0 , 0 , 0) ; font-family: monospace ; font-size: 0px&quot;&gt;%3CmxGraphModel%3E%3Croot%3E%3CmxCell%20id%3D%220%22%2F%3E%3CmxCell%20id%3D%221%22%20parent%3D%220%22%2F%3E%3CmxCell%20id%3D%222%22%20value%3D%22%E4%B8%9A%E5%8A%A1%E7%BB%84%E4%BB%B6%22%20style%3D%22rounded%3D0%3BwhiteSpace%3Dwrap%3Bhtml%3D1%3B%22%20vertex%3D%221%22%20parent%3D%221%22%3E%3CmxGeometry%20x%3D%22180%22%20y%3D%22300%22%20width%3D%22120%22%20height%3D%2260%22%20as%3D%22geometry%22%2F%3E%3C%2FmxCell%3E%3C%2Froot%3E%3C%2FmxGraphModel%3E&lt;/span&gt;" style="rounded=0;whiteSpace=wrap;html=1;fillColor=#ffe6cc;strokeColor=#d79b00;" parent="1" vertex="1">
          <mxGeometry x="467" y="225" width="80" height="40" as="geometry" />
        </mxCell>
        <mxCell id="TgehsIDATV7xhi2gPNsP-21" value="业务组件&lt;br&gt;Components" style="rounded=0;whiteSpace=wrap;html=1;fillColor=#ffe6cc;strokeColor=#d79b00;" parent="1" vertex="1">
          <mxGeometry x="569" y="200" width="90" height="40" as="geometry" />
        </mxCell>
        <mxCell id="TgehsIDATV7xhi2gPNsP-22" value="工具函数&lt;br&gt;utils" style="rounded=0;whiteSpace=wrap;html=1;fillColor=#ffe6cc;strokeColor=#d79b00;" parent="1" vertex="1">
          <mxGeometry x="569" y="250" width="90" height="40" as="geometry" />
        </mxCell>
        <mxCell id="TgehsIDATV7xhi2gPNsP-23" value="基础布局&lt;br&gt;BasicLayout" style="rounded=0;whiteSpace=wrap;html=1;fillColor=#ffe6cc;strokeColor=#d79b00;" parent="1" vertex="1">
          <mxGeometry x="569" y="150" width="90" height="40" as="geometry" />
        </mxCell>
        <mxCell id="TgehsIDATV7xhi2gPNsP-24" value="物料中心" style="rounded=0;whiteSpace=wrap;html=1;fillColor=#dae8fc;strokeColor=#6c8ebf;" parent="1" vertex="1">
          <mxGeometry x="504" y="10" width="90" height="90" as="geometry" />
        </mxCell>
        <mxCell id="WlOXoA2Bl1x3F0ouNl5P-1" value="产品化" style="rounded=0;whiteSpace=wrap;html=1;" vertex="1" parent="1">
          <mxGeometry x="50.00000000000001" y="437.3399999999999" width="120" height="60" as="geometry" />
        </mxCell>
        <mxCell id="WlOXoA2Bl1x3F0ouNl5P-2" value="项目（纵队）" style="rounded=0;whiteSpace=wrap;html=1;" vertex="1" parent="1">
          <mxGeometry x="50.00000000000001" y="770" width="120" height="60" as="geometry" />
        </mxCell>
        <mxCell id="WlOXoA2Bl1x3F0ouNl5P-4" value="联动指挥" style="text;align=center;verticalAlign=middle;resizable=0;points=[];autosize=1;strokeColor=none;fillColor=none;fontSize=8;" vertex="1" parent="1">
          <mxGeometry x="331.01852307710607" y="471.34477611940304" width="60" height="20" as="geometry" />
        </mxCell>
        <mxCell id="WlOXoA2Bl1x3F0ouNl5P-5" value="危化品" style="text;align=center;verticalAlign=middle;resizable=0;points=[];autosize=1;strokeColor=none;fillColor=none;fontSize=8;" vertex="1" parent="1">
          <mxGeometry x="478.97849171381637" y="500.004776119403" width="50" height="20" as="geometry" />
        </mxCell>
        <mxCell id="WlOXoA2Bl1x3F0ouNl5P-6" value="..." style="text;align=center;verticalAlign=middle;resizable=0;points=[];autosize=1;strokeColor=none;fillColor=none;fontSize=8;" vertex="1" parent="1">
          <mxGeometry x="585.8117613327372" y="500.0007462686567" width="30" height="20" as="geometry" />
        </mxCell>
        <mxCell id="WlOXoA2Bl1x3F0ouNl5P-7" value="" style="rounded=0;whiteSpace=wrap;fillColor=#ffe6cc;strokeColor=#d79b00;fontSize=8;" vertex="1" parent="1">
          <mxGeometry x="359.4675384618434" y="380.0014925373134" width="139.39651282094485" height="33.73880597014926" as="geometry" />
        </mxCell>
        <mxCell id="WlOXoA2Bl1x3F0ouNl5P-8" value="" style="rounded=0;whiteSpace=wrap;fillColor=none;fontSize=8;" vertex="1" parent="1">
          <mxGeometry x="287.31" y="507" width="32.8" height="103.29" as="geometry" />
        </mxCell>
        <mxCell id="WlOXoA2Bl1x3F0ouNl5P-10" value="" style="rounded=0;whiteSpace=wrap;fillColor=#ffe6cc;strokeColor=#d79b00;fontSize=8;" vertex="1" parent="1">
          <mxGeometry x="329.97972296173765" y="500.0677611940299" width="73.79815384638256" height="24.537313432835823" as="geometry" />
        </mxCell>
        <mxCell id="WlOXoA2Bl1x3F0ouNl5P-11" value="" style="rounded=0;whiteSpace=wrap;fillColor=#ffe6cc;strokeColor=#d79b00;fontSize=8;" vertex="1" parent="1">
          <mxGeometry x="329.2083179489263" y="530.0694029850747" width="73.79815384638256" height="24.537313432835823" as="geometry" />
        </mxCell>
        <mxCell id="WlOXoA2Bl1x3F0ouNl5P-12" value="" style="rounded=0;whiteSpace=wrap;fillColor=none;fontSize=8;" vertex="1" parent="1">
          <mxGeometry x="447.20534359032047" y="528.9477611940299" width="32.79917948728114" height="82.50671641791045" as="geometry" />
        </mxCell>
        <mxCell id="WlOXoA2Bl1x3F0ouNl5P-13" value="" style="rounded=0;whiteSpace=wrap;fillColor=#ffe6cc;strokeColor=#d79b00;fontSize=8;" vertex="1" parent="1">
          <mxGeometry x="488.20431794942186" y="528.9477611940299" width="73.79815384638256" height="24.537313432835823" as="geometry" />
        </mxCell>
        <mxCell id="WlOXoA2Bl1x3F0ouNl5P-14" value="" style="rounded=0;whiteSpace=wrap;fillColor=#ffe6cc;strokeColor=#d79b00;fontSize=8;" vertex="1" parent="1">
          <mxGeometry x="488.20431794942186" y="559.6194029850747" width="73.79815384638256" height="24.537313432835823" as="geometry" />
        </mxCell>
        <mxCell id="WlOXoA2Bl1x3F0ouNl5P-15" value="" style="rounded=0;whiteSpace=wrap;fillColor=none;fontSize=8;" vertex="1" parent="1">
          <mxGeometry x="328.30831794892634" y="590.2910447761194" width="73.79815384638256" height="24.537313432835823" as="geometry" />
        </mxCell>
        <mxCell id="WlOXoA2Bl1x3F0ouNl5P-16" value="" style="rounded=0;whiteSpace=wrap;fillColor=none;fontSize=8;" vertex="1" parent="1">
          <mxGeometry x="489.84427692378597" y="590.2910447761194" width="73.79815384638256" height="24.537313432835823" as="geometry" />
        </mxCell>
        <mxCell id="WlOXoA2Bl1x3F0ouNl5P-21" value="" style="edgeStyle=orthogonalEdgeStyle;rounded=0;orthogonalLoop=1;jettySize=auto;fontSize=8;" edge="1" parent="1" source="WlOXoA2Bl1x3F0ouNl5P-17" target="WlOXoA2Bl1x3F0ouNl5P-20">
          <mxGeometry x="261.07" y="440" as="geometry" />
        </mxCell>
        <mxCell id="WlOXoA2Bl1x3F0ouNl5P-17" value="" style="rounded=0;whiteSpace=wrap;fillColor=none;fontSize=8;" vertex="1" parent="1">
          <mxGeometry x="683.7231096134893" y="472.20522388059703" width="65.59835897456227" height="141.089552238806" as="geometry" />
        </mxCell>
        <mxCell id="WlOXoA2Bl1x3F0ouNl5P-22" value="Menu/配置" style="text;align=center;verticalAlign=middle;resizable=0;points=[];autosize=1;strokeColor=none;fillColor=none;fontSize=8;" vertex="1" parent="1">
          <mxGeometry x="620.6455469530375" y="522.8134328358209" width="70" height="20" as="geometry" />
        </mxCell>
        <mxCell id="WlOXoA2Bl1x3F0ouNl5P-23" value="" style="endArrow=classic;rounded=0;exitX=1;exitY=0.5;exitDx=0;exitDy=0;entryX=0.432;entryY=0.993;entryDx=0;entryDy=0;entryPerimeter=0;fontSize=8;" edge="1" parent="1" source="WlOXoA2Bl1x3F0ouNl5P-20" target="WlOXoA2Bl1x3F0ouNl5P-15">
          <mxGeometry x="261.07" y="440" width="50" height="50" as="geometry">
            <mxPoint x="563.6424307701685" y="513.6119402985075" as="sourcePoint" />
            <mxPoint x="604.6414051292699" y="482.94029850746267" as="targetPoint" />
            <Array as="points">
              <mxPoint x="582.5019589753553" y="542.75" />
              <mxPoint x="582.5019589753553" y="629.8574626865671" />
              <mxPoint x="360.28751794902547" y="629.8574626865671" />
            </Array>
          </mxGeometry>
        </mxCell>
        <mxCell id="WlOXoA2Bl1x3F0ouNl5P-25" value="" style="endArrow=classic;rounded=0;fontSize=8;" edge="1" parent="1">
          <mxGeometry x="261.07" y="440" width="50" height="50" as="geometry">
            <mxPoint x="524.2834153854311" y="629.8574626865671" as="sourcePoint" />
            <mxPoint x="524.2834153854311" y="614.8283582089553" as="targetPoint" />
          </mxGeometry>
        </mxCell>
        <mxCell id="WlOXoA2Bl1x3F0ouNl5P-26" value="Menu 生成路由" style="text;align=center;verticalAlign=middle;resizable=0;points=[];autosize=1;strokeColor=none;fillColor=none;fontSize=8;" vertex="1" parent="1">
          <mxGeometry x="401.2864923081269" y="613.5888059701492" width="100" height="20" as="geometry" />
        </mxCell>
        <mxCell id="WlOXoA2Bl1x3F0ouNl5P-28" value="统一布局&#xa;Layout(v1、v2)" style="text;align=center;verticalAlign=middle;resizable=0;points=[];autosize=1;strokeColor=none;fillColor=none;fontSize=8;" vertex="1" parent="1">
          <mxGeometry x="379.362450921841" y="381.87" width="100" height="30" as="geometry" />
        </mxCell>
        <mxCell id="WlOXoA2Bl1x3F0ouNl5P-29" value="业务组件&#xa;Components" style="text;align=center;verticalAlign=middle;resizable=0;points=[];autosize=1;strokeColor=none;fillColor=none;fontSize=8;" vertex="1" parent="1">
          <mxGeometry x="485.2528722522974" y="526.22" width="80" height="30" as="geometry" />
        </mxCell>
        <mxCell id="WlOXoA2Bl1x3F0ouNl5P-30" value="工具函数&#xa;utils" style="text;align=center;verticalAlign=middle;resizable=0;points=[];autosize=1;strokeColor=none;fillColor=none;fontSize=8;" vertex="1" parent="1">
          <mxGeometry x="495.21434180361035" y="556.89" width="60" height="30" as="geometry" />
        </mxCell>
        <mxCell id="WlOXoA2Bl1x3F0ouNl5P-31" value="router" style="text;align=center;verticalAlign=middle;resizable=0;points=[];autosize=1;strokeColor=none;fillColor=none;fontSize=8;" vertex="1" parent="1">
          <mxGeometry x="498.86023965939086" y="591.45" width="50" height="20" as="geometry" />
        </mxCell>
        <mxCell id="WlOXoA2Bl1x3F0ouNl5P-32" value="主项目" style="text;align=center;verticalAlign=middle;resizable=0;points=[];autosize=1;strokeColor=none;fillColor=none;fontSize=8;" vertex="1" parent="1">
          <mxGeometry x="438.7029250390121" y="553.49" width="50" height="20" as="geometry" />
        </mxCell>
        <mxCell id="WlOXoA2Bl1x3F0ouNl5P-33" value="主项目" style="text;align=center;verticalAlign=middle;resizable=0;points=[];autosize=1;strokeColor=none;fillColor=none;fontSize=8;" vertex="1" parent="1">
          <mxGeometry x="278.5025717147976" y="556.22" width="50" height="20" as="geometry" />
        </mxCell>
        <mxCell id="WlOXoA2Bl1x3F0ouNl5P-34" value="工具函数&#xa;utils" style="text;align=center;verticalAlign=middle;resizable=0;points=[];autosize=1;strokeColor=none;fillColor=none;fontSize=8;" vertex="1" parent="1">
          <mxGeometry x="336.2227940354865" y="527.34" width="60" height="30" as="geometry" />
        </mxCell>
        <mxCell id="WlOXoA2Bl1x3F0ouNl5P-35" value="业务组件&#xa;Components" style="text;align=center;verticalAlign=middle;resizable=0;points=[];autosize=1;strokeColor=none;fillColor=none;fontSize=8;" vertex="1" parent="1">
          <mxGeometry x="328.07132448417366" y="497.34000000000003" width="80" height="30" as="geometry" />
        </mxCell>
        <mxCell id="WlOXoA2Bl1x3F0ouNl5P-36" value="router" style="text;align=center;verticalAlign=middle;resizable=0;points=[];autosize=1;strokeColor=none;fillColor=none;fontSize=8;" vertex="1" parent="1">
          <mxGeometry x="340.303528811143" y="592.83" width="50" height="20" as="geometry" />
        </mxCell>
        <mxCell id="WlOXoA2Bl1x3F0ouNl5P-37" value="天权/Apollo" style="text;align=center;verticalAlign=middle;resizable=0;points=[];autosize=1;strokeColor=none;fillColor=none;fontSize=8;" vertex="1" parent="1">
          <mxGeometry x="676.6724711503266" y="528.95" width="80" height="20" as="geometry" />
        </mxCell>
        <mxCell id="WlOXoA2Bl1x3F0ouNl5P-38" value="" style="rounded=0;whiteSpace=wrap;fillColor=none;fontSize=8;" vertex="1" parent="1">
          <mxGeometry x="328.97831794892636" y="559.6210447761194" width="73.79815384638256" height="24.537313432835823" as="geometry" />
        </mxCell>
        <mxCell id="WlOXoA2Bl1x3F0ouNl5P-39" value="modules" style="text;align=center;verticalAlign=middle;resizable=0;points=[];autosize=1;strokeColor=none;fillColor=none;fontSize=8;" vertex="1" parent="1">
          <mxGeometry x="335.223528811143" y="562.34" width="60" height="20" as="geometry" />
        </mxCell>
        <mxCell id="WlOXoA2Bl1x3F0ouNl5P-40" value="Webcli + module" style="text;html=1;align=center;verticalAlign=middle;resizable=0;points=[];autosize=1;strokeColor=none;fillColor=none;fontSize=8;" vertex="1" parent="1">
          <mxGeometry x="231.01999999999998" y="730" width="100" height="20" as="geometry" />
        </mxCell>
        <mxCell id="WlOXoA2Bl1x3F0ouNl5P-41" value="" style="html=1;shadow=0;dashed=0;align=center;verticalAlign=middle;shape=mxgraph.arrows2.arrow;dy=0.6;dx=40;direction=south;notch=0;fontSize=8;fillColor=none;" vertex="1" parent="1">
          <mxGeometry x="410.07" y="660" width="23" height="60" as="geometry" />
        </mxCell>
        <mxCell id="WlOXoA2Bl1x3F0ouNl5P-42" value="module 源码（需要二开模块）" style="text;html=1;align=center;verticalAlign=middle;resizable=0;points=[];autosize=1;strokeColor=none;fillColor=none;fontSize=8;" vertex="1" parent="1">
          <mxGeometry x="447.21" y="670" width="180" height="20" as="geometry" />
        </mxCell>
      </root>
    </mxGraphModel>
  </diagram>
</mxfile>
